<mxfile host="app.diagrams.net" modified="2022-09-01T10:33:52.164Z" agent="5.0 (Windows)" etag="A9FflrIRHqk1EOvZDbtv" version="20.2.7" type="github">
  <diagram id="A2XSHuqJlMq8rNMNuziP" name="Page-1">
    <mxGraphModel dx="1766" dy="943" grid="1" gridSize="10" guides="1" tooltips="1" connect="1" arrows="1" fold="1" page="0" pageScale="1" pageWidth="1100" pageHeight="1100" background="#FFFFFF" math="0" shadow="0">
      <root>
        <mxCell id="0" />
        <mxCell id="1" parent="0" />
        <mxCell id="5oaeEAeBF5l6Jmh7AZM0-11" value="" style="rounded=0;whiteSpace=wrap;html=1;fontSize=36;" parent="1" vertex="1">
          <mxGeometry x="-400" y="-160" width="2000" height="1640" as="geometry" />
        </mxCell>
        <object label="AWS" id="ZJu1gmb1K3_EzXzDdYMx-7">
          <mxCell parent="0" />
        </object>
        <mxCell id="5oaeEAeBF5l6Jmh7AZM0-14" value="&lt;h1&gt;&lt;font style=&quot;font-size: 36px;&quot;&gt;Facto - Architecture&lt;/font&gt;&lt;/h1&gt;" style="text;strokeColor=none;fillColor=none;html=1;fontSize=24;fontStyle=1;verticalAlign=middle;align=center;" parent="ZJu1gmb1K3_EzXzDdYMx-7" vertex="1">
          <mxGeometry x="-350" y="-110" width="300" height="60" as="geometry" />
        </mxCell>
        <mxCell id="5oaeEAeBF5l6Jmh7AZM0-267" value="AWS Cloud" style="sketch=0;outlineConnect=0;gradientColor=none;html=1;whiteSpace=wrap;fontSize=12;fontStyle=0;shape=mxgraph.aws4.group;grIcon=mxgraph.aws4.group_aws_cloud;strokeColor=#AAB7B8;fillColor=none;verticalAlign=top;align=left;spacingLeft=30;fontColor=#AAB7B8;dashed=0;" parent="ZJu1gmb1K3_EzXzDdYMx-7" vertex="1">
          <mxGeometry x="-160" y="-40" width="1680" height="1440" as="geometry" />
        </mxCell>
        <object label="VPC" id="5oaeEAeBF5l6Jmh7AZM0-22">
          <mxCell parent="0" />
        </object>
        <mxCell id="5oaeEAeBF5l6Jmh7AZM0-23" value="VPC" style="points=[[0,0],[0.25,0],[0.5,0],[0.75,0],[1,0],[1,0.25],[1,0.5],[1,0.75],[1,1],[0.75,1],[0.5,1],[0.25,1],[0,1],[0,0.75],[0,0.5],[0,0.25]];outlineConnect=0;gradientColor=none;html=1;whiteSpace=wrap;fontSize=12;fontStyle=0;container=1;pointerEvents=0;collapsible=0;recursiveResize=0;shape=mxgraph.aws4.group;grIcon=mxgraph.aws4.group_vpc;strokeColor=#248814;fillColor=none;verticalAlign=top;align=left;spacingLeft=30;fontColor=#AAB7B8;dashed=0;" parent="5oaeEAeBF5l6Jmh7AZM0-22" vertex="1">
          <mxGeometry x="-80" y="40" width="1160" height="1280" as="geometry" />
        </mxCell>
        <object label="Subnet,SG" id="ZJu1gmb1K3_EzXzDdYMx-52">
          <mxCell parent="0" />
        </object>
        <mxCell id="5oaeEAeBF5l6Jmh7AZM0-32" value="Public subnet" style="points=[[0,0],[0.25,0],[0.5,0],[0.75,0],[1,0],[1,0.25],[1,0.5],[1,0.75],[1,1],[0.75,1],[0.5,1],[0.25,1],[0,1],[0,0.75],[0,0.5],[0,0.25]];outlineConnect=0;gradientColor=none;html=1;whiteSpace=wrap;fontSize=12;fontStyle=0;container=1;pointerEvents=0;collapsible=0;recursiveResize=0;shape=mxgraph.aws4.group;grIcon=mxgraph.aws4.group_security_group;grStroke=0;strokeColor=#248814;fillColor=#E9F3E6;verticalAlign=top;align=left;spacingLeft=30;fontColor=#248814;dashed=0;" parent="ZJu1gmb1K3_EzXzDdYMx-52" vertex="1">
          <mxGeometry y="600" width="240" height="280" as="geometry" />
        </mxCell>
        <mxCell id="5oaeEAeBF5l6Jmh7AZM0-33" value="Private subnet" style="points=[[0,0],[0.25,0],[0.5,0],[0.75,0],[1,0],[1,0.25],[1,0.5],[1,0.75],[1,1],[0.75,1],[0.5,1],[0.25,1],[0,1],[0,0.75],[0,0.5],[0,0.25]];outlineConnect=0;gradientColor=none;html=1;whiteSpace=wrap;fontSize=12;fontStyle=0;container=1;pointerEvents=0;collapsible=0;recursiveResize=0;shape=mxgraph.aws4.group;grIcon=mxgraph.aws4.group_security_group;grStroke=0;strokeColor=#147EBA;fillColor=#E6F2F8;verticalAlign=top;align=left;spacingLeft=30;fontColor=#147EBA;dashed=0;" parent="ZJu1gmb1K3_EzXzDdYMx-52" vertex="1">
          <mxGeometry x="280" y="80" width="760" height="1200" as="geometry" />
        </mxCell>
        <mxCell id="5oaeEAeBF5l6Jmh7AZM0-263" style="edgeStyle=orthogonalEdgeStyle;rounded=0;orthogonalLoop=1;jettySize=auto;html=1;exitX=0;exitY=0.5;exitDx=0;exitDy=0;exitPerimeter=0;fontSize=36;" parent="5oaeEAeBF5l6Jmh7AZM0-33" source="5oaeEAeBF5l6Jmh7AZM0-261" target="5oaeEAeBF5l6Jmh7AZM0-218" edge="1">
          <mxGeometry relative="1" as="geometry" />
        </mxCell>
        <mxCell id="5oaeEAeBF5l6Jmh7AZM0-261" value="" style="shape=mxgraph.signs.nature.sun_1;html=1;pointerEvents=1;fillColor=#0000FF;strokeColor=none;verticalLabelPosition=bottom;verticalAlign=top;align=center;fontSize=36;" parent="5oaeEAeBF5l6Jmh7AZM0-33" vertex="1">
          <mxGeometry x="720" y="600" width="20" height="20" as="geometry" />
        </mxCell>
        <mxCell id="5oaeEAeBF5l6Jmh7AZM0-218" value="" style="sketch=0;points=[[0,0,0],[0.25,0,0],[0.5,0,0],[0.75,0,0],[1,0,0],[0,1,0],[0.25,1,0],[0.5,1,0],[0.75,1,0],[1,1,0],[0,0.25,0],[0,0.5,0],[0,0.75,0],[1,0.25,0],[1,0.5,0],[1,0.75,0]];outlineConnect=0;fontColor=#232F3E;gradientColor=#F78E04;gradientDirection=north;fillColor=#D05C17;strokeColor=#ffffff;dashed=0;verticalLabelPosition=bottom;verticalAlign=top;align=center;html=1;fontSize=12;fontStyle=0;aspect=fixed;shape=mxgraph.aws4.resourceIcon;resIcon=mxgraph.aws4.lambda;" parent="5oaeEAeBF5l6Jmh7AZM0-33" vertex="1">
          <mxGeometry x="640" y="590" width="40" height="40" as="geometry" />
        </mxCell>
        <mxCell id="5oaeEAeBF5l6Jmh7AZM0-219" value="facto-bulk-upload-dev-facto-cases-bulk-upload-lambda" style="text;html=1;strokeColor=none;fillColor=none;align=center;verticalAlign=middle;whiteSpace=wrap;rounded=0;" parent="5oaeEAeBF5l6Jmh7AZM0-33" vertex="1">
          <mxGeometry x="590" y="630" width="160" height="30" as="geometry" />
        </mxCell>
        <mxCell id="5oaeEAeBF5l6Jmh7AZM0-265" value="" style="endArrow=classic;startArrow=classic;html=1;rounded=0;fontSize=36;exitX=0.5;exitY=0;exitDx=0;exitDy=0;exitPerimeter=0;entryX=0.5;entryY=1;entryDx=0;entryDy=0;entryPerimeter=0;" parent="5oaeEAeBF5l6Jmh7AZM0-33" source="5oaeEAeBF5l6Jmh7AZM0-218" target="ZJu1gmb1K3_EzXzDdYMx-111" edge="1">
          <mxGeometry width="50" height="50" relative="1" as="geometry">
            <mxPoint x="650" y="450" as="sourcePoint" />
            <mxPoint x="800" y="300" as="targetPoint" />
            <Array as="points">
              <mxPoint x="660" y="360" />
              <mxPoint x="850" y="360" />
            </Array>
          </mxGeometry>
        </mxCell>
        <object label="LambdaGroup" id="5oaeEAeBF5l6Jmh7AZM0-170">
          <mxCell parent="0" />
        </object>
        <object label="FrontEnd- ApiGW" id="5oaeEAeBF5l6Jmh7AZM0-139">
          <mxCell parent="0" />
        </object>
        <mxCell id="5oaeEAeBF5l6Jmh7AZM0-153" style="edgeStyle=orthogonalEdgeStyle;rounded=0;orthogonalLoop=1;jettySize=auto;html=1;exitX=1;exitY=0.75;exitDx=0;exitDy=0;exitPerimeter=0;fontSize=36;" parent="5oaeEAeBF5l6Jmh7AZM0-139" source="5oaeEAeBF5l6Jmh7AZM0-140" target="5oaeEAeBF5l6Jmh7AZM0-114" edge="1">
          <mxGeometry relative="1" as="geometry" />
        </mxCell>
        <mxCell id="5oaeEAeBF5l6Jmh7AZM0-154" style="edgeStyle=orthogonalEdgeStyle;rounded=0;orthogonalLoop=1;jettySize=auto;html=1;exitX=0.5;exitY=1;exitDx=0;exitDy=0;exitPerimeter=0;entryX=0;entryY=0.5;entryDx=0;entryDy=0;entryPerimeter=0;fontSize=36;" parent="5oaeEAeBF5l6Jmh7AZM0-139" source="5oaeEAeBF5l6Jmh7AZM0-140" target="5oaeEAeBF5l6Jmh7AZM0-115" edge="1">
          <mxGeometry relative="1" as="geometry" />
        </mxCell>
        <mxCell id="5oaeEAeBF5l6Jmh7AZM0-155" style="edgeStyle=orthogonalEdgeStyle;rounded=0;orthogonalLoop=1;jettySize=auto;html=1;exitX=0.5;exitY=1;exitDx=0;exitDy=0;exitPerimeter=0;entryX=0;entryY=0.75;entryDx=0;entryDy=0;entryPerimeter=0;fontSize=36;" parent="5oaeEAeBF5l6Jmh7AZM0-139" source="5oaeEAeBF5l6Jmh7AZM0-140" target="5oaeEAeBF5l6Jmh7AZM0-118" edge="1">
          <mxGeometry relative="1" as="geometry" />
        </mxCell>
        <mxCell id="5oaeEAeBF5l6Jmh7AZM0-156" style="edgeStyle=orthogonalEdgeStyle;rounded=0;orthogonalLoop=1;jettySize=auto;html=1;exitX=0.5;exitY=1;exitDx=0;exitDy=0;exitPerimeter=0;entryX=0;entryY=0.5;entryDx=0;entryDy=0;entryPerimeter=0;fontSize=36;" parent="5oaeEAeBF5l6Jmh7AZM0-139" source="5oaeEAeBF5l6Jmh7AZM0-140" target="5oaeEAeBF5l6Jmh7AZM0-119" edge="1">
          <mxGeometry relative="1" as="geometry" />
        </mxCell>
        <mxCell id="5oaeEAeBF5l6Jmh7AZM0-157" style="edgeStyle=orthogonalEdgeStyle;rounded=0;orthogonalLoop=1;jettySize=auto;html=1;exitX=0.5;exitY=1;exitDx=0;exitDy=0;exitPerimeter=0;entryX=0;entryY=0.75;entryDx=0;entryDy=0;entryPerimeter=0;fontSize=36;" parent="5oaeEAeBF5l6Jmh7AZM0-139" source="5oaeEAeBF5l6Jmh7AZM0-140" target="5oaeEAeBF5l6Jmh7AZM0-120" edge="1">
          <mxGeometry relative="1" as="geometry" />
        </mxCell>
        <mxCell id="5oaeEAeBF5l6Jmh7AZM0-158" style="edgeStyle=orthogonalEdgeStyle;rounded=0;orthogonalLoop=1;jettySize=auto;html=1;exitX=0.5;exitY=1;exitDx=0;exitDy=0;exitPerimeter=0;entryX=0;entryY=0.5;entryDx=0;entryDy=0;entryPerimeter=0;fontSize=36;" parent="5oaeEAeBF5l6Jmh7AZM0-139" source="5oaeEAeBF5l6Jmh7AZM0-140" target="5oaeEAeBF5l6Jmh7AZM0-121" edge="1">
          <mxGeometry relative="1" as="geometry" />
        </mxCell>
        <mxCell id="5oaeEAeBF5l6Jmh7AZM0-159" style="edgeStyle=orthogonalEdgeStyle;rounded=0;orthogonalLoop=1;jettySize=auto;html=1;exitX=0.5;exitY=1;exitDx=0;exitDy=0;exitPerimeter=0;entryX=0;entryY=0.75;entryDx=0;entryDy=0;entryPerimeter=0;fontSize=36;" parent="5oaeEAeBF5l6Jmh7AZM0-139" source="5oaeEAeBF5l6Jmh7AZM0-140" target="5oaeEAeBF5l6Jmh7AZM0-122" edge="1">
          <mxGeometry relative="1" as="geometry" />
        </mxCell>
        <mxCell id="5oaeEAeBF5l6Jmh7AZM0-160" style="edgeStyle=orthogonalEdgeStyle;rounded=0;orthogonalLoop=1;jettySize=auto;html=1;exitX=0.5;exitY=1;exitDx=0;exitDy=0;exitPerimeter=0;entryX=0;entryY=0.5;entryDx=0;entryDy=0;entryPerimeter=0;fontSize=36;" parent="5oaeEAeBF5l6Jmh7AZM0-139" source="5oaeEAeBF5l6Jmh7AZM0-140" target="5oaeEAeBF5l6Jmh7AZM0-123" edge="1">
          <mxGeometry relative="1" as="geometry" />
        </mxCell>
        <mxCell id="5oaeEAeBF5l6Jmh7AZM0-161" style="edgeStyle=orthogonalEdgeStyle;rounded=0;orthogonalLoop=1;jettySize=auto;html=1;exitX=0.5;exitY=1;exitDx=0;exitDy=0;exitPerimeter=0;entryX=0;entryY=0.75;entryDx=0;entryDy=0;entryPerimeter=0;fontSize=36;" parent="5oaeEAeBF5l6Jmh7AZM0-139" source="5oaeEAeBF5l6Jmh7AZM0-140" target="5oaeEAeBF5l6Jmh7AZM0-116" edge="1">
          <mxGeometry relative="1" as="geometry" />
        </mxCell>
        <mxCell id="5oaeEAeBF5l6Jmh7AZM0-162" style="edgeStyle=orthogonalEdgeStyle;rounded=0;orthogonalLoop=1;jettySize=auto;html=1;exitX=0.5;exitY=1;exitDx=0;exitDy=0;exitPerimeter=0;entryX=0;entryY=0.5;entryDx=0;entryDy=0;entryPerimeter=0;fontSize=36;" parent="5oaeEAeBF5l6Jmh7AZM0-139" source="5oaeEAeBF5l6Jmh7AZM0-140" target="5oaeEAeBF5l6Jmh7AZM0-117" edge="1">
          <mxGeometry relative="1" as="geometry" />
        </mxCell>
        <mxCell id="5oaeEAeBF5l6Jmh7AZM0-163" style="edgeStyle=orthogonalEdgeStyle;rounded=0;orthogonalLoop=1;jettySize=auto;html=1;exitX=0.5;exitY=1;exitDx=0;exitDy=0;exitPerimeter=0;entryX=0;entryY=0.75;entryDx=0;entryDy=0;entryPerimeter=0;fontSize=36;" parent="5oaeEAeBF5l6Jmh7AZM0-139" source="5oaeEAeBF5l6Jmh7AZM0-140" target="5oaeEAeBF5l6Jmh7AZM0-134" edge="1">
          <mxGeometry relative="1" as="geometry" />
        </mxCell>
        <mxCell id="5oaeEAeBF5l6Jmh7AZM0-140" value="" style="sketch=0;points=[[0,0,0],[0.25,0,0],[0.5,0,0],[0.75,0,0],[1,0,0],[0,1,0],[0.25,1,0],[0.5,1,0],[0.75,1,0],[1,1,0],[0,0.25,0],[0,0.5,0],[0,0.75,0],[1,0.25,0],[1,0.5,0],[1,0.75,0]];outlineConnect=0;fontColor=#232F3E;gradientColor=#FF4F8B;gradientDirection=north;fillColor=#BC1356;strokeColor=#ffffff;dashed=0;verticalLabelPosition=bottom;verticalAlign=top;align=center;html=1;fontSize=12;fontStyle=0;aspect=fixed;shape=mxgraph.aws4.resourceIcon;resIcon=mxgraph.aws4.api_gateway;" parent="5oaeEAeBF5l6Jmh7AZM0-139" vertex="1">
          <mxGeometry x="160" y="720" width="40" height="40" as="geometry" />
        </mxCell>
        <mxCell id="5oaeEAeBF5l6Jmh7AZM0-246" style="edgeStyle=orthogonalEdgeStyle;rounded=0;orthogonalLoop=1;jettySize=auto;html=1;exitX=1;exitY=0.5;exitDx=0;exitDy=0;exitPerimeter=0;entryX=0;entryY=0.5;entryDx=0;entryDy=0;entryPerimeter=0;fontSize=36;" parent="5oaeEAeBF5l6Jmh7AZM0-139" source="5oaeEAeBF5l6Jmh7AZM0-245" target="5oaeEAeBF5l6Jmh7AZM0-140" edge="1">
          <mxGeometry relative="1" as="geometry" />
        </mxCell>
        <mxCell id="5oaeEAeBF5l6Jmh7AZM0-245" value="" style="sketch=0;points=[[0,0,0],[0.25,0,0],[0.5,0,0],[0.75,0,0],[1,0,0],[0,1,0],[0.25,1,0],[0.5,1,0],[0.75,1,0],[1,1,0],[0,0.25,0],[0,0.5,0],[0,0.75,0],[1,0.25,0],[1,0.5,0],[1,0.75,0]];outlineConnect=0;fontColor=#232F3E;gradientColor=#F54749;gradientDirection=north;fillColor=#C7131F;strokeColor=#ffffff;dashed=0;verticalLabelPosition=bottom;verticalAlign=top;align=center;html=1;fontSize=12;fontStyle=0;aspect=fixed;shape=mxgraph.aws4.resourceIcon;resIcon=mxgraph.aws4.amplify;" parent="5oaeEAeBF5l6Jmh7AZM0-139" vertex="1">
          <mxGeometry x="40" y="720" width="40" height="40" as="geometry" />
        </mxCell>
        <mxCell id="5oaeEAeBF5l6Jmh7AZM0-257" value="" style="shape=mxgraph.signs.nature.sun_1;html=1;pointerEvents=1;fillColor=#ff0000;strokeColor=none;verticalLabelPosition=bottom;verticalAlign=top;align=center;fontSize=36;" parent="5oaeEAeBF5l6Jmh7AZM0-139" vertex="1">
          <mxGeometry x="1120" y="490" width="20" height="20" as="geometry" />
        </mxCell>
        <mxCell id="5oaeEAeBF5l6Jmh7AZM0-259" value="" style="shape=mxgraph.signs.nature.sun_1;html=1;pointerEvents=1;fillColor=#0000FF;strokeColor=none;verticalLabelPosition=bottom;verticalAlign=top;align=center;fontSize=36;" parent="5oaeEAeBF5l6Jmh7AZM0-139" vertex="1">
          <mxGeometry x="1380" y="490" width="20" height="20" as="geometry" />
        </mxCell>
        <mxCell id="5oaeEAeBF5l6Jmh7AZM0-276" style="edgeStyle=orthogonalEdgeStyle;rounded=0;orthogonalLoop=1;jettySize=auto;html=1;entryX=0;entryY=0.5;entryDx=0;entryDy=0;entryPerimeter=0;fontSize=36;" parent="5oaeEAeBF5l6Jmh7AZM0-139" source="5oaeEAeBF5l6Jmh7AZM0-275" target="5oaeEAeBF5l6Jmh7AZM0-245" edge="1">
          <mxGeometry relative="1" as="geometry">
            <Array as="points">
              <mxPoint x="-140" y="740" />
              <mxPoint x="-140" y="740" />
            </Array>
          </mxGeometry>
        </mxCell>
        <mxCell id="5oaeEAeBF5l6Jmh7AZM0-275" value="Users" style="sketch=0;outlineConnect=0;gradientColor=none;fontColor=#545B64;strokeColor=none;fillColor=#879196;dashed=0;verticalLabelPosition=bottom;verticalAlign=top;align=center;html=1;fontSize=12;fontStyle=0;aspect=fixed;shape=mxgraph.aws4.illustration_desktop;pointerEvents=1" parent="5oaeEAeBF5l6Jmh7AZM0-139" vertex="1">
          <mxGeometry x="-240" y="723.59" width="40" height="36.41" as="geometry" />
        </mxCell>
        <object label="Lambda-api" id="ZJu1gmb1K3_EzXzDdYMx-8">
          <mxCell parent="0" />
        </object>
        <mxCell id="5oaeEAeBF5l6Jmh7AZM0-114" value="" style="sketch=0;points=[[0,0,0],[0.25,0,0],[0.5,0,0],[0.75,0,0],[1,0,0],[0,1,0],[0.25,1,0],[0.5,1,0],[0.75,1,0],[1,1,0],[0,0.25,0],[0,0.5,0],[0,0.75,0],[1,0.25,0],[1,0.5,0],[1,0.75,0]];outlineConnect=0;fontColor=#232F3E;gradientColor=#F78E04;gradientDirection=north;fillColor=#D05C17;strokeColor=#ffffff;dashed=0;verticalLabelPosition=bottom;verticalAlign=top;align=center;html=1;fontSize=12;fontStyle=0;aspect=fixed;shape=mxgraph.aws4.resourceIcon;resIcon=mxgraph.aws4.lambda;" parent="ZJu1gmb1K3_EzXzDdYMx-8" vertex="1">
          <mxGeometry x="720" y="730" width="40" height="40" as="geometry" />
        </mxCell>
        <mxCell id="5oaeEAeBF5l6Jmh7AZM0-115" value="" style="sketch=0;points=[[0,0,0],[0.25,0,0],[0.5,0,0],[0.75,0,0],[1,0,0],[0,1,0],[0.25,1,0],[0.5,1,0],[0.75,1,0],[1,1,0],[0,0.25,0],[0,0.5,0],[0,0.75,0],[1,0.25,0],[1,0.5,0],[1,0.75,0]];outlineConnect=0;fontColor=#232F3E;gradientColor=#F78E04;gradientDirection=north;fillColor=#D05C17;strokeColor=#ffffff;dashed=0;verticalLabelPosition=bottom;verticalAlign=top;align=center;html=1;fontSize=12;fontStyle=0;aspect=fixed;shape=mxgraph.aws4.resourceIcon;resIcon=mxgraph.aws4.lambda;" parent="ZJu1gmb1K3_EzXzDdYMx-8" vertex="1">
          <mxGeometry x="560" y="770" width="40" height="40" as="geometry" />
        </mxCell>
        <mxCell id="5oaeEAeBF5l6Jmh7AZM0-116" value="" style="sketch=0;points=[[0,0,0],[0.25,0,0],[0.5,0,0],[0.75,0,0],[1,0,0],[0,1,0],[0.25,1,0],[0.5,1,0],[0.75,1,0],[1,1,0],[0,0.25,0],[0,0.5,0],[0,0.75,0],[1,0.25,0],[1,0.5,0],[1,0.75,0]];outlineConnect=0;fontColor=#232F3E;gradientColor=#F78E04;gradientDirection=north;fillColor=#D05C17;strokeColor=#ffffff;dashed=0;verticalLabelPosition=bottom;verticalAlign=top;align=center;html=1;fontSize=12;fontStyle=0;aspect=fixed;shape=mxgraph.aws4.resourceIcon;resIcon=mxgraph.aws4.lambda;" parent="ZJu1gmb1K3_EzXzDdYMx-8" vertex="1">
          <mxGeometry x="720" y="1050" width="40" height="40" as="geometry" />
        </mxCell>
        <mxCell id="5oaeEAeBF5l6Jmh7AZM0-117" value="" style="sketch=0;points=[[0,0,0],[0.25,0,0],[0.5,0,0],[0.75,0,0],[1,0,0],[0,1,0],[0.25,1,0],[0.5,1,0],[0.75,1,0],[1,1,0],[0,0.25,0],[0,0.5,0],[0,0.75,0],[1,0.25,0],[1,0.5,0],[1,0.75,0]];outlineConnect=0;fontColor=#232F3E;gradientColor=#F78E04;gradientDirection=north;fillColor=#D05C17;strokeColor=#ffffff;dashed=0;verticalLabelPosition=bottom;verticalAlign=top;align=center;html=1;fontSize=12;fontStyle=0;aspect=fixed;shape=mxgraph.aws4.resourceIcon;resIcon=mxgraph.aws4.lambda;" parent="ZJu1gmb1K3_EzXzDdYMx-8" vertex="1">
          <mxGeometry x="560" y="1090" width="40" height="40" as="geometry" />
        </mxCell>
        <mxCell id="5oaeEAeBF5l6Jmh7AZM0-118" value="" style="sketch=0;points=[[0,0,0],[0.25,0,0],[0.5,0,0],[0.75,0,0],[1,0,0],[0,1,0],[0.25,1,0],[0.5,1,0],[0.75,1,0],[1,1,0],[0,0.25,0],[0,0.5,0],[0,0.75,0],[1,0.25,0],[1,0.5,0],[1,0.75,0]];outlineConnect=0;fontColor=#232F3E;gradientColor=#F78E04;gradientDirection=north;fillColor=#D05C17;strokeColor=#ffffff;dashed=0;verticalLabelPosition=bottom;verticalAlign=top;align=center;html=1;fontSize=12;fontStyle=0;aspect=fixed;shape=mxgraph.aws4.resourceIcon;resIcon=mxgraph.aws4.lambda;" parent="ZJu1gmb1K3_EzXzDdYMx-8" vertex="1">
          <mxGeometry x="720" y="810" width="40" height="40" as="geometry" />
        </mxCell>
        <mxCell id="5oaeEAeBF5l6Jmh7AZM0-119" value="" style="sketch=0;points=[[0,0,0],[0.25,0,0],[0.5,0,0],[0.75,0,0],[1,0,0],[0,1,0],[0.25,1,0],[0.5,1,0],[0.75,1,0],[1,1,0],[0,0.25,0],[0,0.5,0],[0,0.75,0],[1,0.25,0],[1,0.5,0],[1,0.75,0]];outlineConnect=0;fontColor=#232F3E;gradientColor=#F78E04;gradientDirection=north;fillColor=#D05C17;strokeColor=#ffffff;dashed=0;verticalLabelPosition=bottom;verticalAlign=top;align=center;html=1;fontSize=12;fontStyle=0;aspect=fixed;shape=mxgraph.aws4.resourceIcon;resIcon=mxgraph.aws4.lambda;" parent="ZJu1gmb1K3_EzXzDdYMx-8" vertex="1">
          <mxGeometry x="560" y="850" width="40" height="40" as="geometry" />
        </mxCell>
        <mxCell id="5oaeEAeBF5l6Jmh7AZM0-120" value="" style="sketch=0;points=[[0,0,0],[0.25,0,0],[0.5,0,0],[0.75,0,0],[1,0,0],[0,1,0],[0.25,1,0],[0.5,1,0],[0.75,1,0],[1,1,0],[0,0.25,0],[0,0.5,0],[0,0.75,0],[1,0.25,0],[1,0.5,0],[1,0.75,0]];outlineConnect=0;fontColor=#232F3E;gradientColor=#F78E04;gradientDirection=north;fillColor=#D05C17;strokeColor=#ffffff;dashed=0;verticalLabelPosition=bottom;verticalAlign=top;align=center;html=1;fontSize=12;fontStyle=0;aspect=fixed;shape=mxgraph.aws4.resourceIcon;resIcon=mxgraph.aws4.lambda;" parent="ZJu1gmb1K3_EzXzDdYMx-8" vertex="1">
          <mxGeometry x="720" y="890" width="40" height="40" as="geometry" />
        </mxCell>
        <mxCell id="5oaeEAeBF5l6Jmh7AZM0-121" value="" style="sketch=0;points=[[0,0,0],[0.25,0,0],[0.5,0,0],[0.75,0,0],[1,0,0],[0,1,0],[0.25,1,0],[0.5,1,0],[0.75,1,0],[1,1,0],[0,0.25,0],[0,0.5,0],[0,0.75,0],[1,0.25,0],[1,0.5,0],[1,0.75,0]];outlineConnect=0;fontColor=#232F3E;gradientColor=#F78E04;gradientDirection=north;fillColor=#D05C17;strokeColor=#ffffff;dashed=0;verticalLabelPosition=bottom;verticalAlign=top;align=center;html=1;fontSize=12;fontStyle=0;aspect=fixed;shape=mxgraph.aws4.resourceIcon;resIcon=mxgraph.aws4.lambda;" parent="ZJu1gmb1K3_EzXzDdYMx-8" vertex="1">
          <mxGeometry x="560" y="930" width="40" height="40" as="geometry" />
        </mxCell>
        <mxCell id="5oaeEAeBF5l6Jmh7AZM0-122" value="" style="sketch=0;points=[[0,0,0],[0.25,0,0],[0.5,0,0],[0.75,0,0],[1,0,0],[0,1,0],[0.25,1,0],[0.5,1,0],[0.75,1,0],[1,1,0],[0,0.25,0],[0,0.5,0],[0,0.75,0],[1,0.25,0],[1,0.5,0],[1,0.75,0]];outlineConnect=0;fontColor=#232F3E;gradientColor=#F78E04;gradientDirection=north;fillColor=#D05C17;strokeColor=#ffffff;dashed=0;verticalLabelPosition=bottom;verticalAlign=top;align=center;html=1;fontSize=12;fontStyle=0;aspect=fixed;shape=mxgraph.aws4.resourceIcon;resIcon=mxgraph.aws4.lambda;" parent="ZJu1gmb1K3_EzXzDdYMx-8" vertex="1">
          <mxGeometry x="720" y="970" width="40" height="40" as="geometry" />
        </mxCell>
        <mxCell id="5oaeEAeBF5l6Jmh7AZM0-123" value="" style="sketch=0;points=[[0,0,0],[0.25,0,0],[0.5,0,0],[0.75,0,0],[1,0,0],[0,1,0],[0.25,1,0],[0.5,1,0],[0.75,1,0],[1,1,0],[0,0.25,0],[0,0.5,0],[0,0.75,0],[1,0.25,0],[1,0.5,0],[1,0.75,0]];outlineConnect=0;fontColor=#232F3E;gradientColor=#F78E04;gradientDirection=north;fillColor=#D05C17;strokeColor=#ffffff;dashed=0;verticalLabelPosition=bottom;verticalAlign=top;align=center;html=1;fontSize=12;fontStyle=0;aspect=fixed;shape=mxgraph.aws4.resourceIcon;resIcon=mxgraph.aws4.lambda;" parent="ZJu1gmb1K3_EzXzDdYMx-8" vertex="1">
          <mxGeometry x="560" y="1010" width="40" height="40" as="geometry" />
        </mxCell>
        <mxCell id="5oaeEAeBF5l6Jmh7AZM0-124" value="facto-api-19-dev-facto-fetch-ops-user-component-lambda" style="text;html=1;strokeColor=none;fillColor=none;align=center;verticalAlign=middle;whiteSpace=wrap;rounded=0;" parent="ZJu1gmb1K3_EzXzDdYMx-8" vertex="1">
          <mxGeometry x="480" y="1050" width="200" height="30" as="geometry" />
        </mxCell>
        <mxCell id="5oaeEAeBF5l6Jmh7AZM0-125" value="facto-api-18-dev-facto-delete-client-lambda" style="text;html=1;strokeColor=none;fillColor=none;align=center;verticalAlign=middle;whiteSpace=wrap;rounded=0;" parent="ZJu1gmb1K3_EzXzDdYMx-8" vertex="1">
          <mxGeometry x="660" y="1010" width="170" height="30" as="geometry" />
        </mxCell>
        <mxCell id="5oaeEAeBF5l6Jmh7AZM0-126" value="facto-api-14-dev-facto-fetch-individual-client-lambda" style="text;html=1;strokeColor=none;fillColor=none;align=center;verticalAlign=middle;whiteSpace=wrap;rounded=0;" parent="ZJu1gmb1K3_EzXzDdYMx-8" vertex="1">
          <mxGeometry x="640" y="850" width="200" height="30" as="geometry" />
        </mxCell>
        <mxCell id="5oaeEAeBF5l6Jmh7AZM0-127" value="facto-api-17-dev-facto-delete-user-lambda" style="text;html=1;strokeColor=none;fillColor=none;align=center;verticalAlign=middle;whiteSpace=wrap;rounded=0;" parent="ZJu1gmb1K3_EzXzDdYMx-8" vertex="1">
          <mxGeometry x="510" y="970" width="170" height="30" as="geometry" />
        </mxCell>
        <mxCell id="5oaeEAeBF5l6Jmh7AZM0-128" value="facto-api-16-dev-facto-update-client-lambda" style="text;html=1;strokeColor=none;fillColor=none;align=center;verticalAlign=middle;whiteSpace=wrap;rounded=0;" parent="ZJu1gmb1K3_EzXzDdYMx-8" vertex="1">
          <mxGeometry x="670" y="930" width="170" height="30" as="geometry" />
        </mxCell>
        <mxCell id="5oaeEAeBF5l6Jmh7AZM0-129" value="facto-api-12-dev-facto-download-document-lambda" style="text;html=1;strokeColor=none;fillColor=none;align=center;verticalAlign=middle;whiteSpace=wrap;rounded=0;" parent="ZJu1gmb1K3_EzXzDdYMx-8" vertex="1">
          <mxGeometry x="640" y="770" width="190" height="30" as="geometry" />
        </mxCell>
        <mxCell id="5oaeEAeBF5l6Jmh7AZM0-130" value="facto-api-13-dev-facto-fetch-individual-user-lambda" style="text;html=1;strokeColor=none;fillColor=none;align=center;verticalAlign=middle;whiteSpace=wrap;rounded=0;" parent="ZJu1gmb1K3_EzXzDdYMx-8" vertex="1">
          <mxGeometry x="485" y="810" width="180" height="30" as="geometry" />
        </mxCell>
        <mxCell id="5oaeEAeBF5l6Jmh7AZM0-131" value="facto-api-15-dev-facto-update-user-lambda" style="text;html=1;strokeColor=none;fillColor=none;align=center;verticalAlign=middle;whiteSpace=wrap;rounded=0;" parent="ZJu1gmb1K3_EzXzDdYMx-8" vertex="1">
          <mxGeometry x="490" y="890" width="180" height="30" as="geometry" />
        </mxCell>
        <mxCell id="5oaeEAeBF5l6Jmh7AZM0-132" value="facto-api-21-dev-facto-fetch-users-by-sup-id-lambda" style="text;html=1;strokeColor=none;fillColor=none;align=center;verticalAlign=middle;whiteSpace=wrap;rounded=0;" parent="ZJu1gmb1K3_EzXzDdYMx-8" vertex="1">
          <mxGeometry x="480" y="1130" width="200" height="30" as="geometry" />
        </mxCell>
        <mxCell id="5oaeEAeBF5l6Jmh7AZM0-133" value="facto-api-22-dev-facto-fetch-client-by-userId-lambda" style="text;html=1;strokeColor=none;fillColor=none;align=center;verticalAlign=middle;whiteSpace=wrap;rounded=0;" parent="ZJu1gmb1K3_EzXzDdYMx-8" vertex="1">
          <mxGeometry x="640" y="1170" width="210" height="30" as="geometry" />
        </mxCell>
        <mxCell id="5oaeEAeBF5l6Jmh7AZM0-134" value="" style="sketch=0;points=[[0,0,0],[0.25,0,0],[0.5,0,0],[0.75,0,0],[1,0,0],[0,1,0],[0.25,1,0],[0.5,1,0],[0.75,1,0],[1,1,0],[0,0.25,0],[0,0.5,0],[0,0.75,0],[1,0.25,0],[1,0.5,0],[1,0.75,0]];outlineConnect=0;fontColor=#232F3E;gradientColor=#F78E04;gradientDirection=north;fillColor=#D05C17;strokeColor=#ffffff;dashed=0;verticalLabelPosition=bottom;verticalAlign=top;align=center;html=1;fontSize=12;fontStyle=0;aspect=fixed;shape=mxgraph.aws4.resourceIcon;resIcon=mxgraph.aws4.lambda;" parent="ZJu1gmb1K3_EzXzDdYMx-8" vertex="1">
          <mxGeometry x="720" y="1130" width="40" height="40" as="geometry" />
        </mxCell>
        <mxCell id="5oaeEAeBF5l6Jmh7AZM0-193" value="Lambda API" style="swimlane;fontSize=20;startSize=23;" parent="ZJu1gmb1K3_EzXzDdYMx-8" vertex="1">
          <mxGeometry x="470" y="100" width="380" height="1110" as="geometry" />
        </mxCell>
        <mxCell id="5oaeEAeBF5l6Jmh7AZM0-194" value="" style="sketch=0;points=[[0,0,0],[0.25,0,0],[0.5,0,0],[0.75,0,0],[1,0,0],[0,1,0],[0.25,1,0],[0.5,1,0],[0.75,1,0],[1,1,0],[0,0.25,0],[0,0.5,0],[0,0.75,0],[1,0.25,0],[1,0.5,0],[1,0.75,0]];outlineConnect=0;fontColor=#232F3E;gradientColor=#F78E04;gradientDirection=north;fillColor=#D05C17;strokeColor=#ffffff;dashed=0;verticalLabelPosition=bottom;verticalAlign=top;align=center;html=1;fontSize=12;fontStyle=0;aspect=fixed;shape=mxgraph.aws4.resourceIcon;resIcon=mxgraph.aws4.lambda;" parent="5oaeEAeBF5l6Jmh7AZM0-193" vertex="1">
          <mxGeometry x="80" y="50" width="40" height="40" as="geometry" />
        </mxCell>
        <mxCell id="5oaeEAeBF5l6Jmh7AZM0-195" value="" style="sketch=0;points=[[0,0,0],[0.25,0,0],[0.5,0,0],[0.75,0,0],[1,0,0],[0,1,0],[0.25,1,0],[0.5,1,0],[0.75,1,0],[1,1,0],[0,0.25,0],[0,0.5,0],[0,0.75,0],[1,0.25,0],[1,0.5,0],[1,0.75,0]];outlineConnect=0;fontColor=#232F3E;gradientColor=#F78E04;gradientDirection=north;fillColor=#D05C17;strokeColor=#ffffff;dashed=0;verticalLabelPosition=bottom;verticalAlign=top;align=center;html=1;fontSize=12;fontStyle=0;aspect=fixed;shape=mxgraph.aws4.resourceIcon;resIcon=mxgraph.aws4.lambda;" parent="5oaeEAeBF5l6Jmh7AZM0-193" vertex="1">
          <mxGeometry x="240" y="90" width="40" height="40" as="geometry" />
        </mxCell>
        <mxCell id="5oaeEAeBF5l6Jmh7AZM0-196" value="" style="sketch=0;points=[[0,0,0],[0.25,0,0],[0.5,0,0],[0.75,0,0],[1,0,0],[0,1,0],[0.25,1,0],[0.5,1,0],[0.75,1,0],[1,1,0],[0,0.25,0],[0,0.5,0],[0,0.75,0],[1,0.25,0],[1,0.5,0],[1,0.75,0]];outlineConnect=0;fontColor=#232F3E;gradientColor=#F78E04;gradientDirection=north;fillColor=#D05C17;strokeColor=#ffffff;dashed=0;verticalLabelPosition=bottom;verticalAlign=top;align=center;html=1;fontSize=12;fontStyle=0;aspect=fixed;shape=mxgraph.aws4.resourceIcon;resIcon=mxgraph.aws4.lambda;" parent="5oaeEAeBF5l6Jmh7AZM0-193" vertex="1">
          <mxGeometry x="80" y="130" width="40" height="40" as="geometry" />
        </mxCell>
        <mxCell id="5oaeEAeBF5l6Jmh7AZM0-197" value="" style="sketch=0;points=[[0,0,0],[0.25,0,0],[0.5,0,0],[0.75,0,0],[1,0,0],[0,1,0],[0.25,1,0],[0.5,1,0],[0.75,1,0],[1,1,0],[0,0.25,0],[0,0.5,0],[0,0.75,0],[1,0.25,0],[1,0.5,0],[1,0.75,0]];outlineConnect=0;fontColor=#232F3E;gradientColor=#F78E04;gradientDirection=north;fillColor=#D05C17;strokeColor=#ffffff;dashed=0;verticalLabelPosition=bottom;verticalAlign=top;align=center;html=1;fontSize=12;fontStyle=0;aspect=fixed;shape=mxgraph.aws4.resourceIcon;resIcon=mxgraph.aws4.lambda;" parent="5oaeEAeBF5l6Jmh7AZM0-193" vertex="1">
          <mxGeometry x="240" y="170" width="40" height="40" as="geometry" />
        </mxCell>
        <mxCell id="5oaeEAeBF5l6Jmh7AZM0-198" value="" style="sketch=0;points=[[0,0,0],[0.25,0,0],[0.5,0,0],[0.75,0,0],[1,0,0],[0,1,0],[0.25,1,0],[0.5,1,0],[0.75,1,0],[1,1,0],[0,0.25,0],[0,0.5,0],[0,0.75,0],[1,0.25,0],[1,0.5,0],[1,0.75,0]];outlineConnect=0;fontColor=#232F3E;gradientColor=#F78E04;gradientDirection=north;fillColor=#D05C17;strokeColor=#ffffff;dashed=0;verticalLabelPosition=bottom;verticalAlign=top;align=center;html=1;fontSize=12;fontStyle=0;aspect=fixed;shape=mxgraph.aws4.resourceIcon;resIcon=mxgraph.aws4.lambda;" parent="5oaeEAeBF5l6Jmh7AZM0-193" vertex="1">
          <mxGeometry x="80" y="210" width="40" height="40" as="geometry" />
        </mxCell>
        <mxCell id="5oaeEAeBF5l6Jmh7AZM0-199" value="" style="sketch=0;points=[[0,0,0],[0.25,0,0],[0.5,0,0],[0.75,0,0],[1,0,0],[0,1,0],[0.25,1,0],[0.5,1,0],[0.75,1,0],[1,1,0],[0,0.25,0],[0,0.5,0],[0,0.75,0],[1,0.25,0],[1,0.5,0],[1,0.75,0]];outlineConnect=0;fontColor=#232F3E;gradientColor=#F78E04;gradientDirection=north;fillColor=#D05C17;strokeColor=#ffffff;dashed=0;verticalLabelPosition=bottom;verticalAlign=top;align=center;html=1;fontSize=12;fontStyle=0;aspect=fixed;shape=mxgraph.aws4.resourceIcon;resIcon=mxgraph.aws4.lambda;" parent="5oaeEAeBF5l6Jmh7AZM0-193" vertex="1">
          <mxGeometry x="240" y="250" width="40" height="40" as="geometry" />
        </mxCell>
        <mxCell id="5oaeEAeBF5l6Jmh7AZM0-200" value="" style="sketch=0;points=[[0,0,0],[0.25,0,0],[0.5,0,0],[0.75,0,0],[1,0,0],[0,1,0],[0.25,1,0],[0.5,1,0],[0.75,1,0],[1,1,0],[0,0.25,0],[0,0.5,0],[0,0.75,0],[1,0.25,0],[1,0.5,0],[1,0.75,0]];outlineConnect=0;fontColor=#232F3E;gradientColor=#F78E04;gradientDirection=north;fillColor=#D05C17;strokeColor=#ffffff;dashed=0;verticalLabelPosition=bottom;verticalAlign=top;align=center;html=1;fontSize=12;fontStyle=0;aspect=fixed;shape=mxgraph.aws4.resourceIcon;resIcon=mxgraph.aws4.lambda;" parent="5oaeEAeBF5l6Jmh7AZM0-193" vertex="1">
          <mxGeometry x="80" y="290" width="40" height="40" as="geometry" />
        </mxCell>
        <mxCell id="5oaeEAeBF5l6Jmh7AZM0-201" value="" style="sketch=0;points=[[0,0,0],[0.25,0,0],[0.5,0,0],[0.75,0,0],[1,0,0],[0,1,0],[0.25,1,0],[0.5,1,0],[0.75,1,0],[1,1,0],[0,0.25,0],[0,0.5,0],[0,0.75,0],[1,0.25,0],[1,0.5,0],[1,0.75,0]];outlineConnect=0;fontColor=#232F3E;gradientColor=#F78E04;gradientDirection=north;fillColor=#D05C17;strokeColor=#ffffff;dashed=0;verticalLabelPosition=bottom;verticalAlign=top;align=center;html=1;fontSize=12;fontStyle=0;aspect=fixed;shape=mxgraph.aws4.resourceIcon;resIcon=mxgraph.aws4.lambda;" parent="5oaeEAeBF5l6Jmh7AZM0-193" vertex="1">
          <mxGeometry x="240" y="330" width="40" height="40" as="geometry" />
        </mxCell>
        <mxCell id="5oaeEAeBF5l6Jmh7AZM0-202" value="" style="sketch=0;points=[[0,0,0],[0.25,0,0],[0.5,0,0],[0.75,0,0],[1,0,0],[0,1,0],[0.25,1,0],[0.5,1,0],[0.75,1,0],[1,1,0],[0,0.25,0],[0,0.5,0],[0,0.75,0],[1,0.25,0],[1,0.5,0],[1,0.75,0]];outlineConnect=0;fontColor=#232F3E;gradientColor=#F78E04;gradientDirection=north;fillColor=#D05C17;strokeColor=#ffffff;dashed=0;verticalLabelPosition=bottom;verticalAlign=top;align=center;html=1;fontSize=12;fontStyle=0;aspect=fixed;shape=mxgraph.aws4.resourceIcon;resIcon=mxgraph.aws4.lambda;" parent="5oaeEAeBF5l6Jmh7AZM0-193" vertex="1">
          <mxGeometry x="80" y="370" width="40" height="40" as="geometry" />
        </mxCell>
        <mxCell id="5oaeEAeBF5l6Jmh7AZM0-203" value="" style="sketch=0;points=[[0,0,0],[0.25,0,0],[0.5,0,0],[0.75,0,0],[1,0,0],[0,1,0],[0.25,1,0],[0.5,1,0],[0.75,1,0],[1,1,0],[0,0.25,0],[0,0.5,0],[0,0.75,0],[1,0.25,0],[1,0.5,0],[1,0.75,0]];outlineConnect=0;fontColor=#232F3E;gradientColor=#F78E04;gradientDirection=north;fillColor=#D05C17;strokeColor=#ffffff;dashed=0;verticalLabelPosition=bottom;verticalAlign=top;align=center;html=1;fontSize=12;fontStyle=0;aspect=fixed;shape=mxgraph.aws4.resourceIcon;resIcon=mxgraph.aws4.lambda;" parent="5oaeEAeBF5l6Jmh7AZM0-193" vertex="1">
          <mxGeometry x="240" y="410" width="40" height="40" as="geometry" />
        </mxCell>
        <mxCell id="5oaeEAeBF5l6Jmh7AZM0-204" value="facto-api-6-dev-facto-fetch-client-cases-lambda" style="text;html=1;strokeColor=none;fillColor=none;align=center;verticalAlign=middle;whiteSpace=wrap;rounded=0;" parent="5oaeEAeBF5l6Jmh7AZM0-193" vertex="1">
          <mxGeometry x="170" y="290" width="180" height="30" as="geometry" />
        </mxCell>
        <mxCell id="5oaeEAeBF5l6Jmh7AZM0-205" value="facto-api-4-dev-facto-insert-clients-lambda" style="text;html=1;strokeColor=none;fillColor=none;align=center;verticalAlign=middle;whiteSpace=wrap;rounded=0;" parent="5oaeEAeBF5l6Jmh7AZM0-193" vertex="1">
          <mxGeometry x="170" y="210" width="180" height="30" as="geometry" />
        </mxCell>
        <mxCell id="5oaeEAeBF5l6Jmh7AZM0-206" value="facto-api-8-dev-facto-update-cases-lambda" style="text;html=1;strokeColor=none;fillColor=none;align=center;verticalAlign=middle;whiteSpace=wrap;rounded=0;" parent="5oaeEAeBF5l6Jmh7AZM0-193" vertex="1">
          <mxGeometry x="170" y="370" width="180" height="30" as="geometry" />
        </mxCell>
        <mxCell id="5oaeEAeBF5l6Jmh7AZM0-207" value="facto-api-10-dev-facto-fetch-all-users-lambda" style="text;html=1;strokeColor=none;fillColor=none;align=center;verticalAlign=middle;whiteSpace=wrap;rounded=0;" parent="5oaeEAeBF5l6Jmh7AZM0-193" vertex="1">
          <mxGeometry x="190" y="450" width="160" height="30" as="geometry" />
        </mxCell>
        <mxCell id="5oaeEAeBF5l6Jmh7AZM0-208" value="facto-api-1-dev-facto-login-lambda" style="text;html=1;strokeColor=none;fillColor=none;align=center;verticalAlign=middle;whiteSpace=wrap;rounded=0;" parent="5oaeEAeBF5l6Jmh7AZM0-193" vertex="1">
          <mxGeometry x="40" y="90" width="120" height="30" as="geometry" />
        </mxCell>
        <mxCell id="5oaeEAeBF5l6Jmh7AZM0-209" value="facto-api-3-dev-facto-insert-cases-lambda" style="text;html=1;strokeColor=none;fillColor=none;align=center;verticalAlign=middle;whiteSpace=wrap;rounded=0;" parent="5oaeEAeBF5l6Jmh7AZM0-193" vertex="1">
          <mxGeometry x="25" y="170" width="160" height="30" as="geometry" />
        </mxCell>
        <mxCell id="5oaeEAeBF5l6Jmh7AZM0-210" value="facto-api-2-dev-facto-fetch-client-component-lambda" style="text;html=1;strokeColor=none;fillColor=none;align=center;verticalAlign=middle;whiteSpace=wrap;rounded=0;" parent="5oaeEAeBF5l6Jmh7AZM0-193" vertex="1">
          <mxGeometry x="170" y="130" width="200" height="30" as="geometry" />
        </mxCell>
        <mxCell id="5oaeEAeBF5l6Jmh7AZM0-211" value="facto-api-5-dev-facto-insert-users-lambda" style="text;html=1;strokeColor=none;fillColor=none;align=center;verticalAlign=middle;whiteSpace=wrap;rounded=0;" parent="5oaeEAeBF5l6Jmh7AZM0-193" vertex="1">
          <mxGeometry x="20" y="250" width="170" height="30" as="geometry" />
        </mxCell>
        <mxCell id="5oaeEAeBF5l6Jmh7AZM0-212" value="facto-api-7-dev-facto-fetch-individual-case-lambda" style="text;html=1;strokeColor=none;fillColor=none;align=center;verticalAlign=middle;whiteSpace=wrap;rounded=0;" parent="5oaeEAeBF5l6Jmh7AZM0-193" vertex="1">
          <mxGeometry x="10" y="330" width="190" height="30" as="geometry" />
        </mxCell>
        <mxCell id="5oaeEAeBF5l6Jmh7AZM0-213" value="facto-api-9-dev-facto-fetch-all-clients-lambda" style="text;html=1;strokeColor=none;fillColor=none;align=center;verticalAlign=middle;whiteSpace=wrap;rounded=0;" parent="5oaeEAeBF5l6Jmh7AZM0-193" vertex="1">
          <mxGeometry x="25" y="410" width="160" height="30" as="geometry" />
        </mxCell>
        <mxCell id="5oaeEAeBF5l6Jmh7AZM0-256" style="edgeStyle=orthogonalEdgeStyle;rounded=0;orthogonalLoop=1;jettySize=auto;html=1;exitX=1;exitY=0.5;exitDx=0;exitDy=0;exitPerimeter=0;entryX=0;entryY=0.5;entryDx=0;entryDy=0;entryPerimeter=0;fontSize=36;" parent="5oaeEAeBF5l6Jmh7AZM0-193" source="5oaeEAeBF5l6Jmh7AZM0-214" target="5oaeEAeBF5l6Jmh7AZM0-255" edge="1">
          <mxGeometry relative="1" as="geometry" />
        </mxCell>
        <mxCell id="5oaeEAeBF5l6Jmh7AZM0-214" value="" style="sketch=0;points=[[0,0,0],[0.25,0,0],[0.5,0,0],[0.75,0,0],[1,0,0],[0,1,0],[0.25,1,0],[0.5,1,0],[0.75,1,0],[1,1,0],[0,0.25,0],[0,0.5,0],[0,0.75,0],[1,0.25,0],[1,0.5,0],[1,0.75,0]];outlineConnect=0;fontColor=#232F3E;gradientColor=#F78E04;gradientDirection=north;fillColor=#D05C17;strokeColor=#ffffff;dashed=0;verticalLabelPosition=bottom;verticalAlign=top;align=center;html=1;fontSize=12;fontStyle=0;aspect=fixed;shape=mxgraph.aws4.resourceIcon;resIcon=mxgraph.aws4.lambda;" parent="5oaeEAeBF5l6Jmh7AZM0-193" vertex="1">
          <mxGeometry x="80" y="480" width="40" height="40" as="geometry" />
        </mxCell>
        <mxCell id="5oaeEAeBF5l6Jmh7AZM0-215" value="facto-api-11-dev-facto-get-bulk-upload-url-lambda" style="text;html=1;strokeColor=none;fillColor=none;align=center;verticalAlign=middle;whiteSpace=wrap;rounded=0;" parent="5oaeEAeBF5l6Jmh7AZM0-193" vertex="1">
          <mxGeometry x="20" y="520" width="160" height="30" as="geometry" />
        </mxCell>
        <mxCell id="5oaeEAeBF5l6Jmh7AZM0-255" value="" style="shape=mxgraph.signs.nature.sun_1;html=1;pointerEvents=1;fillColor=#ff0000;strokeColor=none;verticalLabelPosition=bottom;verticalAlign=top;align=center;fontSize=36;" parent="5oaeEAeBF5l6Jmh7AZM0-193" vertex="1">
          <mxGeometry x="200" y="490" width="20" height="20" as="geometry" />
        </mxCell>
        <object label="Additional Services" id="ZJu1gmb1K3_EzXzDdYMx-106">
          <mxCell parent="0" />
        </object>
        <mxCell id="ZJu1gmb1K3_EzXzDdYMx-111" value="" style="sketch=0;points=[[0,0,0],[0.25,0,0],[0.5,0,0],[0.75,0,0],[1,0,0],[0,1,0],[0.25,1,0],[0.5,1,0],[0.75,1,0],[1,1,0],[0,0.25,0],[0,0.5,0],[0,0.75,0],[1,0.25,0],[1,0.5,0],[1,0.75,0]];outlineConnect=0;fontColor=#232F3E;gradientColor=#4D72F3;gradientDirection=north;fillColor=#3334B9;strokeColor=#ffffff;dashed=0;verticalLabelPosition=bottom;verticalAlign=top;align=center;html=1;fontSize=12;fontStyle=0;aspect=fixed;shape=mxgraph.aws4.resourceIcon;resIcon=mxgraph.aws4.dynamodb;" parent="ZJu1gmb1K3_EzXzDdYMx-106" vertex="1">
          <mxGeometry x="1110" y="360" width="40" height="40" as="geometry" />
        </mxCell>
        <mxCell id="ZJu1gmb1K3_EzXzDdYMx-123" value="" style="endArrow=classic;startArrow=classic;html=1;rounded=0;entryX=0;entryY=0.5;entryDx=0;entryDy=0;entryPerimeter=0;exitX=1;exitY=0.25;exitDx=0;exitDy=0;" parent="ZJu1gmb1K3_EzXzDdYMx-106" source="5oaeEAeBF5l6Jmh7AZM0-193" target="ZJu1gmb1K3_EzXzDdYMx-111" edge="1">
          <mxGeometry width="50" height="50" relative="1" as="geometry">
            <mxPoint x="1090" y="440" as="sourcePoint" />
            <mxPoint x="680" y="500" as="targetPoint" />
            <Array as="points" />
          </mxGeometry>
        </mxCell>
        <mxCell id="5oaeEAeBF5l6Jmh7AZM0-165" style="edgeStyle=orthogonalEdgeStyle;rounded=0;orthogonalLoop=1;jettySize=auto;html=1;exitX=1;exitY=0.5;exitDx=0;exitDy=0;exitPerimeter=0;entryX=0;entryY=0.5;entryDx=0;entryDy=0;entryPerimeter=0;" parent="ZJu1gmb1K3_EzXzDdYMx-106" source="5oaeEAeBF5l6Jmh7AZM0-166" target="5oaeEAeBF5l6Jmh7AZM0-167" edge="1">
          <mxGeometry relative="1" as="geometry" />
        </mxCell>
        <mxCell id="5oaeEAeBF5l6Jmh7AZM0-258" value="" style="edgeStyle=orthogonalEdgeStyle;rounded=0;orthogonalLoop=1;jettySize=auto;html=1;fontSize=36;" parent="ZJu1gmb1K3_EzXzDdYMx-106" source="5oaeEAeBF5l6Jmh7AZM0-166" target="5oaeEAeBF5l6Jmh7AZM0-257" edge="1">
          <mxGeometry relative="1" as="geometry" />
        </mxCell>
        <mxCell id="5oaeEAeBF5l6Jmh7AZM0-166" value="" style="sketch=0;points=[[0,0,0],[0.25,0,0],[0.5,0,0],[0.75,0,0],[1,0,0],[0,1,0],[0.25,1,0],[0.5,1,0],[0.75,1,0],[1,1,0],[0,0.25,0],[0,0.5,0],[0,0.75,0],[1,0.25,0],[1,0.5,0],[1,0.75,0]];outlineConnect=0;fontColor=#232F3E;gradientColor=#60A337;gradientDirection=north;fillColor=#277116;strokeColor=#ffffff;dashed=0;verticalLabelPosition=bottom;verticalAlign=top;align=center;html=1;fontSize=12;fontStyle=0;aspect=fixed;shape=mxgraph.aws4.resourceIcon;resIcon=mxgraph.aws4.s3;" parent="ZJu1gmb1K3_EzXzDdYMx-106" vertex="1">
          <mxGeometry x="1160" y="480" width="40" height="40" as="geometry" />
        </mxCell>
        <mxCell id="5oaeEAeBF5l6Jmh7AZM0-260" style="edgeStyle=orthogonalEdgeStyle;rounded=0;orthogonalLoop=1;jettySize=auto;html=1;exitX=1;exitY=0.5;exitDx=0;exitDy=0;exitPerimeter=0;entryX=0;entryY=0.5;entryDx=0;entryDy=0;entryPerimeter=0;fontSize=36;" parent="ZJu1gmb1K3_EzXzDdYMx-106" source="5oaeEAeBF5l6Jmh7AZM0-167" target="5oaeEAeBF5l6Jmh7AZM0-259" edge="1">
          <mxGeometry relative="1" as="geometry" />
        </mxCell>
        <mxCell id="5oaeEAeBF5l6Jmh7AZM0-167" value="" style="sketch=0;points=[[0,0,0],[0.25,0,0],[0.5,0,0],[0.75,0,0],[1,0,0],[0,1,0],[0.25,1,0],[0.5,1,0],[0.75,1,0],[1,1,0],[0,0.25,0],[0,0.5,0],[0,0.75,0],[1,0.25,0],[1,0.5,0],[1,0.75,0]];outlineConnect=0;fontColor=#232F3E;gradientColor=#FF4F8B;gradientDirection=north;fillColor=#BC1356;strokeColor=#ffffff;dashed=0;verticalLabelPosition=bottom;verticalAlign=top;align=center;html=1;fontSize=12;fontStyle=0;aspect=fixed;shape=mxgraph.aws4.resourceIcon;resIcon=mxgraph.aws4.sns;" parent="ZJu1gmb1K3_EzXzDdYMx-106" vertex="1">
          <mxGeometry x="1280" y="480" width="40" height="40" as="geometry" />
        </mxCell>
        <mxCell id="5oaeEAeBF5l6Jmh7AZM0-168" value="dev-facto" style="text;html=1;strokeColor=none;fillColor=none;align=center;verticalAlign=middle;whiteSpace=wrap;rounded=0;" parent="ZJu1gmb1K3_EzXzDdYMx-106" vertex="1">
          <mxGeometry x="1135" y="515" width="110" height="30" as="geometry" />
        </mxCell>
        <mxCell id="5oaeEAeBF5l6Jmh7AZM0-169" value="dev-facto-upload" style="text;html=1;strokeColor=none;fillColor=none;align=center;verticalAlign=middle;whiteSpace=wrap;rounded=0;" parent="ZJu1gmb1K3_EzXzDdYMx-106" vertex="1">
          <mxGeometry x="1245" y="515" width="120" height="25" as="geometry" />
        </mxCell>
        <mxCell id="5oaeEAeBF5l6Jmh7AZM0-221" style="edgeStyle=orthogonalEdgeStyle;rounded=0;orthogonalLoop=1;jettySize=auto;html=1;exitX=0.5;exitY=0;exitDx=0;exitDy=0;exitPerimeter=0;entryX=0;entryY=0.5;entryDx=0;entryDy=0;entryPerimeter=0;fontSize=36;" parent="ZJu1gmb1K3_EzXzDdYMx-106" source="5oaeEAeBF5l6Jmh7AZM0-140" target="5oaeEAeBF5l6Jmh7AZM0-214" edge="1">
          <mxGeometry relative="1" as="geometry" />
        </mxCell>
        <mxCell id="5oaeEAeBF5l6Jmh7AZM0-222" style="edgeStyle=orthogonalEdgeStyle;rounded=0;orthogonalLoop=1;jettySize=auto;html=1;exitX=0.5;exitY=0;exitDx=0;exitDy=0;exitPerimeter=0;entryX=0;entryY=0.75;entryDx=0;entryDy=0;entryPerimeter=0;fontSize=36;" parent="ZJu1gmb1K3_EzXzDdYMx-106" source="5oaeEAeBF5l6Jmh7AZM0-140" target="5oaeEAeBF5l6Jmh7AZM0-203" edge="1">
          <mxGeometry relative="1" as="geometry" />
        </mxCell>
        <mxCell id="5oaeEAeBF5l6Jmh7AZM0-223" style="edgeStyle=orthogonalEdgeStyle;rounded=0;orthogonalLoop=1;jettySize=auto;html=1;exitX=0.5;exitY=0;exitDx=0;exitDy=0;exitPerimeter=0;entryX=0;entryY=0.5;entryDx=0;entryDy=0;entryPerimeter=0;fontSize=36;" parent="ZJu1gmb1K3_EzXzDdYMx-106" source="5oaeEAeBF5l6Jmh7AZM0-140" target="5oaeEAeBF5l6Jmh7AZM0-202" edge="1">
          <mxGeometry relative="1" as="geometry" />
        </mxCell>
        <mxCell id="5oaeEAeBF5l6Jmh7AZM0-224" style="edgeStyle=orthogonalEdgeStyle;rounded=0;orthogonalLoop=1;jettySize=auto;html=1;exitX=0.5;exitY=0;exitDx=0;exitDy=0;exitPerimeter=0;entryX=0;entryY=0.75;entryDx=0;entryDy=0;entryPerimeter=0;fontSize=36;" parent="ZJu1gmb1K3_EzXzDdYMx-106" source="5oaeEAeBF5l6Jmh7AZM0-140" target="5oaeEAeBF5l6Jmh7AZM0-201" edge="1">
          <mxGeometry relative="1" as="geometry" />
        </mxCell>
        <mxCell id="5oaeEAeBF5l6Jmh7AZM0-226" style="edgeStyle=orthogonalEdgeStyle;rounded=0;orthogonalLoop=1;jettySize=auto;html=1;exitX=0.5;exitY=0;exitDx=0;exitDy=0;exitPerimeter=0;entryX=0;entryY=0.5;entryDx=0;entryDy=0;entryPerimeter=0;fontSize=36;" parent="ZJu1gmb1K3_EzXzDdYMx-106" source="5oaeEAeBF5l6Jmh7AZM0-140" target="5oaeEAeBF5l6Jmh7AZM0-200" edge="1">
          <mxGeometry relative="1" as="geometry" />
        </mxCell>
        <mxCell id="5oaeEAeBF5l6Jmh7AZM0-227" style="edgeStyle=orthogonalEdgeStyle;rounded=0;orthogonalLoop=1;jettySize=auto;html=1;exitX=0.5;exitY=0;exitDx=0;exitDy=0;exitPerimeter=0;entryX=0;entryY=0.75;entryDx=0;entryDy=0;entryPerimeter=0;fontSize=36;" parent="ZJu1gmb1K3_EzXzDdYMx-106" source="5oaeEAeBF5l6Jmh7AZM0-140" target="5oaeEAeBF5l6Jmh7AZM0-199" edge="1">
          <mxGeometry relative="1" as="geometry" />
        </mxCell>
        <mxCell id="5oaeEAeBF5l6Jmh7AZM0-228" style="edgeStyle=orthogonalEdgeStyle;rounded=0;orthogonalLoop=1;jettySize=auto;html=1;exitX=0.5;exitY=0;exitDx=0;exitDy=0;exitPerimeter=0;entryX=0;entryY=0.5;entryDx=0;entryDy=0;entryPerimeter=0;fontSize=36;" parent="ZJu1gmb1K3_EzXzDdYMx-106" source="5oaeEAeBF5l6Jmh7AZM0-140" target="5oaeEAeBF5l6Jmh7AZM0-198" edge="1">
          <mxGeometry relative="1" as="geometry" />
        </mxCell>
        <mxCell id="5oaeEAeBF5l6Jmh7AZM0-229" style="edgeStyle=orthogonalEdgeStyle;rounded=0;orthogonalLoop=1;jettySize=auto;html=1;exitX=0.5;exitY=0;exitDx=0;exitDy=0;exitPerimeter=0;entryX=0;entryY=0.75;entryDx=0;entryDy=0;entryPerimeter=0;fontSize=36;" parent="ZJu1gmb1K3_EzXzDdYMx-106" source="5oaeEAeBF5l6Jmh7AZM0-140" target="5oaeEAeBF5l6Jmh7AZM0-197" edge="1">
          <mxGeometry relative="1" as="geometry" />
        </mxCell>
        <mxCell id="5oaeEAeBF5l6Jmh7AZM0-230" style="edgeStyle=orthogonalEdgeStyle;rounded=0;orthogonalLoop=1;jettySize=auto;html=1;exitX=0.5;exitY=0;exitDx=0;exitDy=0;exitPerimeter=0;entryX=0;entryY=0.5;entryDx=0;entryDy=0;entryPerimeter=0;fontSize=36;" parent="ZJu1gmb1K3_EzXzDdYMx-106" source="5oaeEAeBF5l6Jmh7AZM0-140" target="5oaeEAeBF5l6Jmh7AZM0-196" edge="1">
          <mxGeometry relative="1" as="geometry" />
        </mxCell>
        <mxCell id="5oaeEAeBF5l6Jmh7AZM0-231" style="edgeStyle=orthogonalEdgeStyle;rounded=0;orthogonalLoop=1;jettySize=auto;html=1;exitX=0.5;exitY=0;exitDx=0;exitDy=0;exitPerimeter=0;entryX=0;entryY=0.75;entryDx=0;entryDy=0;entryPerimeter=0;fontSize=36;" parent="ZJu1gmb1K3_EzXzDdYMx-106" source="5oaeEAeBF5l6Jmh7AZM0-140" target="5oaeEAeBF5l6Jmh7AZM0-195" edge="1">
          <mxGeometry relative="1" as="geometry" />
        </mxCell>
        <mxCell id="5oaeEAeBF5l6Jmh7AZM0-232" style="edgeStyle=orthogonalEdgeStyle;rounded=0;orthogonalLoop=1;jettySize=auto;html=1;exitX=0.5;exitY=0;exitDx=0;exitDy=0;exitPerimeter=0;entryX=0;entryY=0.5;entryDx=0;entryDy=0;entryPerimeter=0;fontSize=36;" parent="ZJu1gmb1K3_EzXzDdYMx-106" source="5oaeEAeBF5l6Jmh7AZM0-140" target="5oaeEAeBF5l6Jmh7AZM0-194" edge="1">
          <mxGeometry relative="1" as="geometry" />
        </mxCell>
      </root>
    </mxGraphModel>
  </diagram>
</mxfile>
